<svg width="24" height="24" viewBox="0 0 28 28" fill="none" xmlns="http://www.w3.org/2000/svg">
<path d="M14 13.4167C15.6108 13.4167 16.9166 12.1108 16.9166 10.5C16.9166 8.88918 15.6108 7.58334 14 7.58334C12.3891 7.58334 11.0833 8.88918 11.0833 10.5C11.0833 12.1108 12.3891 13.4167 14 13.4167Z" stroke="#767676" stroke-width="1.8" stroke-linejoin="round"/>
<path d="M5.84612 22.3603L5.84714 22.3452M5.84612 22.3603L5.86262 22.3603M5.84612 22.3603C5.84646 22.3553 5.8468 22.3502 5.84714 22.3452M22.153 22.3483L22.1497 22.3483M22.153 22.3483L22.1528 22.3452M22.153 22.3483C22.153 22.3473 22.1529 22.3462 22.1528 22.3452M5.86262 22.3603C5.85745 22.3553 5.8523 22.3503 5.84714 22.3452M5.86262 22.3603C7.96441 24.4064 10.835 25.6667 14 25.6667C17.1711 25.6667 20.0468 24.4015 22.1497 22.3483M5.86262 22.3603L5.84714 22.3452M5.84714 22.3452C6.05502 19.3124 8.58106 16.9167 11.6666 16.9167H16.3333C19.4189 16.9167 21.9449 19.3124 22.1528 22.3452M5.84714 22.3452C3.67911 20.2269 2.33331 17.2706 2.33331 14C2.33331 7.55669 7.55666 2.33334 14 2.33334C20.4433 2.33334 25.6666 7.55669 25.6666 14C25.6666 17.2706 24.3208 20.2269 22.1528 22.3452M22.1528 22.3452C22.1518 22.3462 22.1507 22.3473 22.1497 22.3483M22.1528 22.3452L22.1497 22.3483" stroke="#767676" stroke-width="1.8" stroke-linecap="round" stroke-linejoin="round"/>
</svg>
