<svg width="54" height="54" viewBox="0 0 54 54" fill="none" xmlns="http://www.w3.org/2000/svg">
<rect width="54" height="54" rx="10" fill="#E9E9E9"/>
<g clip-path="url(#clip0_1_114)">
<path d="M18 36L22.337 23.632L30.5 32.0192L18 36Z" stroke="#17171B" stroke-width="1.8" stroke-linejoin="round"/>
<path d="M26.5 24.5L29 22C30.3333 20.6667 30.5 19.5 29.5 18.5" stroke="#17171B" stroke-width="1.8" stroke-linecap="round" stroke-linejoin="round"/>
<path d="M29.5 27.5L32 25C33.6667 23.3333 35.3333 23.3333 37 25" stroke="#17171B" stroke-width="1.8" stroke-linecap="round" stroke-linejoin="round"/>
<path d="M25 18.5C25.5523 18.5 26 18.0523 26 17.5C26 16.9477 25.5523 16.5 25 16.5C24.4477 16.5 24 16.9477 24 17.5C24 18.0523 24.4477 18.5 25 18.5Z" fill="#17171B"/>
<path d="M36 18C36.5523 18 37 17.5523 37 17C37 16.4477 36.5523 16 36 16C35.4477 16 35 16.4477 35 17C35 17.5523 35.4477 18 36 18Z" fill="#17171B"/>
<path d="M36 29.5C36.5523 29.5 37 29.0523 37 28.5C37 27.9477 36.5523 27.5 36 27.5C35.4477 27.5 35 27.9477 35 28.5C35 29.0523 35.4477 29.5 36 29.5Z" fill="#17171B"/>
<path d="M34.5 34C35.0523 34 35.5 33.5523 35.5 33C35.5 32.4477 35.0523 32 34.5 32C33.9477 32 33.5 32.4477 33.5 33C33.5 33.5523 33.9477 34 34.5 34Z" fill="#17171B"/>
</g>
<defs>
<clipPath id="clip0_1_114">
<rect width="24" height="24" fill="white" transform="translate(15 15)"/>
</clipPath>
</defs>
</svg>
