<svg width="28" height="28" viewBox="0 0 28 28" fill="none" xmlns="http://www.w3.org/2000/svg">
<path d="M20.4167 9.33333C22.0275 9.33333 23.3333 8.0275 23.3333 6.41667C23.3333 4.80584 22.0275 3.5 20.4167 3.5C18.8058 3.5 17.5 4.80584 17.5 6.41667C17.5 8.0275 18.8058 9.33333 20.4167 9.33333Z" stroke="#767676" stroke-width="1.8" stroke-linejoin="round"/>
<path d="M7.58332 16.9167C9.19415 16.9167 10.5 15.6108 10.5 14C10.5 12.3892 9.19415 11.0833 7.58332 11.0833C5.97249 11.0833 4.66666 12.3892 4.66666 14C4.66666 15.6108 5.97249 16.9167 7.58332 16.9167Z" stroke="#767676" stroke-width="1.8" stroke-linejoin="round"/>
<path d="M17.5 7.91846L10.1144 12.3931" stroke="#767676" stroke-width="1.8" stroke-linecap="round" stroke-linejoin="round"/>
<path d="M10.1144 15.4956L17.8963 20.094" stroke="#767676" stroke-width="1.8" stroke-linecap="round" stroke-linejoin="round"/>
<path d="M20.4167 18.6667C22.0275 18.6667 23.3333 19.9725 23.3333 21.5833C23.3333 23.1942 22.0275 24.5 20.4167 24.5C18.8058 24.5 17.5 23.1942 17.5 21.5833C17.5 19.9725 18.8058 18.6667 20.4167 18.6667Z" stroke="#767676" stroke-width="1.8" stroke-linejoin="round"/>
</svg>
